<svg xmlns="http://www.w3.org/2000/svg" width="752.359" height="1013.867" viewBox="0 0 752.359 1013.867">
  <g id="Gruppe_51" data-name="Gruppe 51" transform="translate(-839.959 -104.974)">
    <path id="Pfad_5" data-name="Pfad 5" d="M1024.721,772.517c8.217.654,16.465,1.058,24.647,2.015,14.431,1.69,29.056,2.678,43.186,5.814,28.9,6.414,57.595,13.814,86.247,21.289,17.61,4.593,35.02,9.972,52.451,15.229,5.038,1.518,6.655.109,6.549-5.009-.516-24.828-.982-49.66-1.114-74.491-.025-5.06-3.392-7.425-5.964-10.67-5.638-7.115-10.522-14.95-16.862-21.358-8.958-9.058-16.871-18.567-22.206-30.248-2.51-5.495-4.011-10.335-1.765-16.555,4.478-12.388,11.875-22.951,18.862-33.868,6.827-10.673,13.057-21.731,19.54-32.626.695-1.164,1.036-2.816,2.043-3.473,6.127-4,5.066-9.909,5.066-15.951.022-59.338.272-118.672.425-178.007.085-33.749.466-67.5.016-101.241-.247-18.767-.532-37.729-3.367-56.209-2.666-17.366-2.068-34.234-.454-51.475,1.167-12.456.379-25.091.67-37.638.034-1.518,1.367-3,2.1-4.5.995,1.33,2.872,2.669,2.854,3.983-.366,25.939,10.009,47.764,25.279,67.886,10.185,13.423,14.112,29.165,15.61,45.6,1.051,11.558,2.1,23.139,2.472,34.728.2,6.339-.929,12.729-1.586,19.084-1.8,17.331-3.539,34.672-5.548,51.978-1.364,11.762-3.163,23.4-10.663,33.327-2.835,3.755-4.759,8.2-8.01,13.936-.6-3.032-1.252-4.409-1.07-5.663,1.436-10,3.457-19.738,8.758-28.68,5.419-9.146,7.588-19.45,7.847-30.029.426-17.281.858-34.647-5.541-51.143a107.725,107.725,0,0,0-8.414-16.427c-4.6-7.622-9.647-14.972-14.556-22.406a6.758,6.758,0,0,0-4.068-2.857c-.113,2.572-.351,5.144-.319,7.713q.77,65.145,1.608,130.29c.3,22.306,1.186,44.613,1.008,66.913-.288,36.274-.482,72.583-2.24,108.8-.785,16.174,6.8,26.709,16.947,37,4.621,4.687,9.393,9.324,13.32,14.568a41.137,41.137,0,0,1,8.442,28.27c-.394,5.729.695,11.558.326,17.291A20.753,20.753,0,0,1,1274,676.9c-8.195,13.107-16.677,26.036-25.067,39.025-1.042,1.615-2.115,3.21-3.2,4.8-3.217,4.681-5.6,9.424-5.46,15.52.588,25.21.807,50.426,1.117,75.64.066,5.46,2.143,8.58,8.1,9.124,13.692,1.248,27.344,2.922,41.008,4.471,1.292.147,3.423.341,3.677,1.045,2.187,6.13,6.8,3.88,10.695,3.116,5.125-1,10.163-2.488,15.194-3.924,3.539-1.011,5.038.413,4.221,3.711-.576,2.334-1.533,5.125-3.273,6.533-16.859,13.63-33.912,27.016-50.936,40.439a10.336,10.336,0,0,1-2.441.957l-2.209-5.8c-6.752,1.8-13.57,3.148-19.947,5.632-1.608.629-2.572,4.906-2.515,7.478q.634,29.085,1.846,58.155c1.2,29.071,2.606,58.13,3.83,87.2.091,2.215-.582,4.462-.9,6.693l-1.984.028a15.652,15.652,0,0,1-1.18-3.864q-2.831-73.551-5.454-147.105c-.157-4.622-1.549-6-6.3-6.687-23.968-3.489-47.523-8.711-70.393-17.062-14.9-5.441-30.332-9.428-45.5-14.149-17.025-5.3-34.065-10.554-51.018-16.086a255.024,255.024,0,0,0-64.347-12.419c-26.712-1.571-53.139-.429-78.713,8.536A161.213,161.213,0,0,0,859.5,868.9c-8.964,9.293-10.814,21.724-13.745,33.486-5.77,23.132-1.69,44.566,12.5,63.919a15.617,15.617,0,0,1,.933,2.753c-10.27-11.089-15.313-23.086-18.1-36.393-2.772-13.226.1-25.808,2.941-38.518.961-4.293,1.117-8.761,1.918-13.1a10.437,10.437,0,0,1,2.171-5.156c11.7-12.3,22.128-25.761,36.152-35.9,9.524-6.887,17.566-15.8,26.459-23.586,3.924-3.436,9.28-5.6,12.322-9.609,12.375-16.292,25.11-32.457,35.8-49.844,11.3-18.373,20.044-38.289,30.592-57.148,8.426-15.063,15.213-30.633,17.262-47.786a202.52,202.52,0,0,0-1.605-56.184c-2.979-18.614-6.558-37.022-13.4-54.694-.6-1.543.873-5.16,2.409-6.058,16.533-9.665,33.289-18.949,49.951-28.4,6.728-3.814,8.671-3.536,11.114,3.849,8.5,25.667,15.1,51.8,15.41,79.031.16,14.115-2,28.358-.757,42.332,1.58,17.794-7.766,31.255-14.963,45.58-10.773,21.443-22.419,42.448-33.771,63.6-1.843,3.436-4.077,6.658-6.13,9.981l1.805,1.355c7.707-8.514,16.121-16.5,22.973-25.658,12.153-16.243,24.209-32.673,34.769-49.963,16.471-26.972,24.988-56.149,23.658-88.446-1.737-42.213-12.719-82.176-25.848-121.8-5.182-15.642-10.948-31.086-16.314-46.669-12.629-36.681-11.465-73.271,1.692-109.47,9.24-25.432,21.731-49.222,38.48-70.646a148.847,148.847,0,0,0,10.738-15.8c-15.382,7.021-31.687,12.072-44.225,24.237-11.017,10.685-21.7,21.555-29.346,35.091a152.271,152.271,0,0,0-19.353,65.22c-2.384,34.7,3.385,68.421,13.852,101.435,1.64,5.169,3.27,10.344,5.079,15.457,1.724,4.866.441,8.348-4.34,10.363-6.386,2.691-12.885,5.132-19.19,7.991a138.613,138.613,0,0,0-13.273,7.037c-5.332,3.16-11.64,4-16.364,9.021-3.915,4.162-7.094,2.412-9.121-4.324-3.351-11.142-6.405-22.375-9.393-33.618-1.89-7.1-2.632-7.369-10.1-6.524-10.542,1.189-17.053,6.421-19.506,16.84a9.944,9.944,0,0,1-4.284,5.682q5.186-13.606,10.382-27.209,4.266-11.123,8.592-22.228c1.427-3.667.229-6.367-3.68-5.391-5.075,1.267-10.435,2.991-14.569,6.026-6.136,4.5-11.3,10.319-17.788,15.013.6-1.5,1.127-3.038,1.831-4.493,7.037-14.543,14.6-28.862,20.967-43.693a54.915,54.915,0,0,1,15.648-21.255,18.019,18.019,0,0,0,6.812-12.134c2.723-17.322,7.5-34.084,15.589-49.735,17.328-33.549,43.824-56.359,79.4-69.347,13.376-4.881,25.6-12.81,38.7-18.567,21.274-9.349,42.676-18.458,64.322-26.9,16.389-6.389,33.236-11.615,49.923-17.228,1.511-.507,3.342-.069,5.025-.069l.435,1.508c-2.052,1.158-3.974,2.857-6.18,3.389-22.6,5.448-36.518,21.85-49.4,39.312-12.685,17.2-23.727,35.476-31.618,55.408-13,32.842-17.122,66.484-6.142,100.712,8.818,27.5,19.193,54.513,27.629,82.123,6.1,19.985,11.706,40.367,14.747,60.98,3.9,26.421,6.868,53.6-1.155,79.676-5.016,16.311-13.1,31.862-21.227,47-13.1,24.39-30.686,45.852-49.829,65.546-16.427,16.9-35.408,31.308-53.255,46.825-2.851,2.478-5.682,4.978-8.524,7.469Z" transform="translate(0 82.109)" fill="#e6c440"/>
    <path id="Pfad_6" data-name="Pfad 6" d="M1006.612,433.144a33.617,33.617,0,0,1,2.237-4.262c8.924-12.419,18.539-24.4,26.631-37.338,4.59-7.341,11.837-10.1,18.038-14.753q16.714-12.536,33.39-25.123a33.57,33.57,0,0,1,2.853-2c6.837-4.1,8.335-3.229,9.459,4.506,2.024,13.965,9.268,25.276,18.667,35.426,17.447,18.849,39.756,29.243,63.781,36.559,6.008,1.827,12.072,2.034,18.179-.717,2.563-1.155,5.886-.588,8.852-.895,1.283-.131,2.91-.075,3.755-.817,12.5-10.976,25.617-21.371,37.145-33.3,19.609-20.294,21.036-44.707,12.979-70.467-3.436-10.976-7.04-21.9-10.567-32.845l1.633-.591c3.554,9.931,7.447,19.759,10.589,29.819,4.527,14.5,8.035,29.275,4.969,44.622-3.52,17.607-14.656,30.476-27.344,42.132-7.967,7.322-16.543,13.977-24.632,21.171-2.19,1.946-3.542,4.819-5.4,7.162a18.53,18.53,0,0,1-3.53,3.551c-7.722,5.588-14.422,11.461-18.382,20.964-2.594,6.224-9.24,10.939-14.54,15.82-9.941,9.152-20.27,17.882-30.348,26.887-20.827,18.6-29.213,43.449-34.9,69.66-1.355,6.245-2.995,12.435-4.668,18.6a5.317,5.317,0,0,1-2.973,3.054c4.662-22.413,6.161-45.533,19.684-65.445l-2.544-1.133c-1.871,1.784-3.836,3.479-5.6,5.366-12.159,13.007-26.242,23.99-42.056,31.54-16.659,7.954-34.572,13.47-52.279,18.949-7.61,2.353-16.067,2.053-24.162,2.663-1.455.11-4.121-1.008-4.283-1.909a6.154,6.154,0,0,1,1.712-4.919c9.434-8.229,19.249-16.027,28.561-24.387,5-4.49,8.967-10.116,13.924-14.662,2.641-2.425,6.377-5.132,9.647-5.169,27.134-.291,51.628-9.762,75.352-21.477,5.82-2.872,10.62-8.292,15.1-13.248,3.989-4.415,7.122-9.675,10.2-14.819,2.471-4.127,1.123-6.4-3.427-6.371-18.7.106-35.338-6.837-50.964-15.986A122.41,122.41,0,0,1,1053.4,424.3a89.981,89.981,0,0,1-6.036-9.9c-1.73-3.235-3.535-4.177-6.846-1.83-8.189,5.807-16.534,11.4-24.835,17.047-2.5,1.705-5.053,3.336-7.585,5Z" transform="translate(321.961 386.528)" fill="#e6c440"/>
    <path id="Pfad_7" data-name="Pfad 7" d="M925.443,386c-9.161,11.871-17.413,22.472-25.554,33.161-3.964,5.207-7.879,10.473-11.512,15.917-2.315,3.47-4.994,3.861-8.939,3.32-11.558-1.58-16.224-10.072-20.658-19.152-4.356-8.924-3.211-16.058,3.364-24.231,8.545-10.626,14.621-23.2,22.272-34.588,11.868-17.66,24.387-34.882,36.189-52.585,6.23-9.34,14.115-16.771,22.873-23.552,12.432-9.625,26.662-14.972,41.982-17.2,27.037-3.936,54.1-7.844,81.25-10.832,21.643-2.381,40.513-10.435,58.277-22.723,12.45-8.614,20.761-20.26,27.91-32.895,6.837-12.081,14.544-23.984,16.9-38.026.9-5.391.516-11.03.4-16.546-.066-3.188-2.879-6.862,2.459-8.636.61-.2.954-2.863.573-4.121-2.365-7.769-5.022-15.445-7.463-23.192a26.215,26.215,0,0,1-.607-4.79c1.671-.091,3.461-.613,4.987-.194,7.569,2.087,12.012,7.891,13.161,14.931,3.739,22.951,4.844,46.005-4.578,68.033a119.641,119.641,0,0,1-13.27,23.736c-4.493,6.111-11.007,10.707-16.458,16.145-8.229,8.207-16.2,16.674-24.528,24.778-2.062,2.006-5.041,3.088-7.647,4.512-1.483.81-3.226,1.223-4.566,2.206-16.859,12.356-33.564,24.925-50.526,37.138-9.766,7.034-21.64,8.439-33.008,10.535-21.343,3.933-42.9,6.718-64.228,10.714-12.913,2.419-26.036,5.022-38.186,9.787-8.914,3.5-16.821,10.132-24.344,16.371a11.772,11.772,0,0,0-3.517,14.168c2.027,4.6,3.044,9.919,6,13.771,3.245,4.224,8.057,7.334,12.478,10.529C919,383.982,921.751,384.526,925.443,386Z" transform="translate(34.555 0)" fill="#e6c440"/>
    <path id="Pfad_8" data-name="Pfad 8" d="M868.638,468.445c-5.4-7.785-10.81-15.573-16.615-23.937l-1.965,4.049c-4.828-12.181-4.043-24.822-2.506-37.219,2.5-20.163,5.3-40.339,9.378-60.223,1.74-8.5,7.491-16.1,10.547-24.418,4.1-11.152,13.933-18.032,19.519-28.111q16.329-29.461,33.971-58.18c14.69-23.933,34.519-42.811,57.535-58.95,17.694-12.4,37.166-16.524,57.914-17.826,25.717-1.611,51.449-3.345,76.6-9.421,10.338-2.5,20.513-5.748,30.633-9.055a61.932,61.932,0,0,0,30.285-21.577c1.039-1.349,3.242-1.8,4.906-2.663-.307,1.943.021,4.374-1.033,5.745-4.108,5.354-8.742,10.3-13.026,15.529-8.545,10.429-16.915,21-25.548,31.352-1.32,1.583-3.614,2.375-5.5,3.454-.97.554-2.322.673-3.023,1.433-14.734,16-34.093,23.448-54.5,27.754-21.362,4.5-43.08,7.328-64.679,10.654-14.331,2.2-28.874,3.279-43.048,6.2-11.552,2.378-21.042,9.709-30.088,17.056-18.962,15.4-35.02,33.151-45.442,55.649-5.272,11.386-11.53,22.319-17.359,33.449-.354.676-.751,1.708-1.308,1.846-9.831,2.431-10.341,11.54-12.181,18.658-3.38,13.054-5.551,26.462-7.506,39.829-1.818,12.444-3.07,25.007-3.774,37.563-.222,3.955,1.511,8.373,3.411,12.028,4.984,9.578,10.557,18.849,15.892,28.242Z" transform="translate(13.656 33.937)" fill="#e6c440"/>
    <path id="Pfad_9" data-name="Pfad 9" d="M949.127,259.787c-1.78.745-3.626,1.361-5.332,2.247-14.875,7.716-29.753,15.432-44.563,23.273-2.885,1.527-5.3,4.033-8.276,5.247-1.762.72-4.193-.213-6.324-.4.738-2.087.848-5.2,2.319-6.1,17.072-10.473,34.34-20.632,51.587-30.82,4.734-2.8,8.389-.817,8.495,4.471Z" transform="translate(95.109 312.928)" fill="#e6c440"/>
    <path id="Pfad_10" data-name="Pfad 10" d="M983.1,397.426c9.246-10.144,20.351-18.167,32.128-27.829,0,3.023.441,4.581-.066,5.006-9.972,8.4-20.057,16.655-30.116,24.944Z" transform="translate(304.753 563.375)" fill="#e6c440"/>
    <path id="Pfad_11" data-name="Pfad 11" d="M994.072,378.587c5.5-4.744,10.892-9.628,16.611-14.09.939-.732,3.314.379,5.025.638-.757,1.417-1.189,3.22-2.331,4.187-4.214,3.57-8.567,7.006-13.085,10.182-1.392.976-3.476.967-5.247,1.408Z" transform="translate(328.102 551.994)" fill="#e6c440"/>
  </g>
</svg>
